<svg class="svg-icon" style="width: 1em;height: 1em;vertical-align: middle;fill: currentColor;overflow: hidden;" viewBox="0 0 1024 1024" version="1.1" xmlns="http://www.w3.org/2000/svg"><path d="M443.392 479.744h379.392c8.704 0 15.36-6.656 15.36-15.36s-6.656-15.36-15.36-15.36H443.392c-8.704 0-15.36 6.656-15.36 15.36s6.656 15.36 15.36 15.36zM812.544 542.72H453.632c-8.704 0-15.36 6.656-15.36 15.36s6.656 15.36 15.36 15.36h358.912c8.704 0 15.36-6.656 15.36-15.36s-6.656-15.36-15.36-15.36zM802.304 635.904H463.872c-8.704 0-15.36 6.656-15.36 15.36s6.656 15.36 15.36 15.36h338.432c8.704 0 15.36-6.656 15.36-15.36 0-8.192-6.656-15.36-15.36-15.36z" fill="#EB5F9D" /><path d="M958.464 257.024H307.712c-11.264 0-20.48 9.216-20.48 20.48V343.04c0 11.264 9.216 20.48 20.48 20.48h19.456l25.088 262.656H241.664c-5.12 0-8.192-2.56-8.192-3.584v-104.448h0.512c11.264 0 20.48-9.216 20.48-20.48V359.936h2.048c8.704 0 15.36-6.656 15.36-15.36s-6.656-15.36-15.36-15.36h-23.552V250.368c0-8.704-6.656-15.36-15.36-15.36s-15.36 6.656-15.36 15.36v78.848h-19.968c-8.704 0-15.36 6.656-15.36 15.36 0 8.192 6.144 14.336 13.824 15.36V497.664c0 11.264 9.216 20.48 20.48 20.48h0.512v104.448c0 18.944 17.408 34.304 38.912 34.304h114.176l4.608 46.592H120.832c-5.12 0-8.192-2.56-8.192-3.584v-182.272h0.512c11.264 0 20.48-9.216 20.48-20.48V359.936h0.512c8.704 0 15.36-6.656 15.36-15.36s-6.656-15.36-15.36-15.36H112.64V250.368c0-8.704-6.656-15.36-15.36-15.36s-15.36 6.656-15.36 15.36v78.848h-21.504c-8.704 0-15.36 6.656-15.36 15.36s6.656 15.36 15.36 15.36h0.512v137.216c0 11.264 9.216 20.48 20.48 20.48h0.512v182.272c0 18.944 17.408 34.304 38.912 34.304h242.176l3.584 36.352c1.024 10.752 9.728 18.432 20.48 18.432h492.032c10.752 0 19.456-8.192 20.48-18.432l39.424-407.04h19.456c11.264 0 20.48-9.216 20.48-20.48V277.504c0-11.264-9.216-20.48-20.48-20.48z m-630.272 40.96h609.792V322.56H328.192v-24.576z m532.48 450.048H405.504L368.64 363.52h528.896l-36.864 384.512z" fill="#ACBEC9" /></svg>