<?xml version="1.0" encoding="utf-8"?>
<!-- Generator: Adobe Illustrator 26.0.2, SVG Export Plug-In . SVG Version: 6.00 Build 0)  -->
<svg version="1.1" xmlns="http://www.w3.org/2000/svg" xmlns:xlink="http://www.w3.org/1999/xlink" x="0px" y="0px"
	 viewBox="0 0 127 127" style="enable-background:new 0 0 127 127;" xml:space="preserve">
<style type="text/css">
	.st0{fill:none;stroke:#104B8E;stroke-width:1.5;stroke-linecap:round;stroke-miterlimit:10;}
	.st1{fill:#398ECC;}
	.st2{fill:none;stroke:#398ECC;stroke-width:1.5;stroke-linecap:round;stroke-miterlimit:10;}
	.st3{fill:#258163;}
	.st4{fill:#D47928;}
	.st5{fill:none;stroke:#D47928;stroke-width:1.5;stroke-linecap:round;stroke-miterlimit:10;}
	.st6{fill:none;stroke:#258163;stroke-width:1.5;stroke-linecap:round;stroke-miterlimit:10;}
	.st7{fill:#5C9EA7;}
	.st8{fill:#0A688C;}
	.st9{fill:#104B8E;}
	.st10{fill:none;stroke:#D47928;stroke-width:3;stroke-linecap:round;stroke-miterlimit:10;}
</style>
<g id="Layer_1">
</g>
<g id="Isolation_Mode">
	<g>
		<path class="st0" d="M81.6,95.4c0,2.2,0.9,4.4,2.5,6c1.6,1.6,3.7,2.5,6,2.5h1.2c2.2,0,4.4-0.9,6-2.5c1.6-1.6,2.5-3.7,2.5-6V38.2
			H81.6V95.4z"/>
		<line class="st0" x1="81.7" y1="69.5" x2="99.7" y2="69.5"/>
		<path class="st0" d="M54.7,95.4c0,2.2,0.9,4.4,2.5,6c1.6,1.6,3.7,2.5,6,2.5h1.2c2.2,0,4.4-0.9,6-2.5c1.6-1.6,2.5-3.7,2.5-6V38.2
			H54.7V95.4z"/>
		<path class="st3" d="M71.9,23.2H55.7c-0.8,0-1.5,0.3-2,0.7c-0.5,0.5-0.8,1.1-0.8,1.8v6c0,0.7,0.3,1.3,0.8,1.8
			c0.5,0.5,1.3,0.7,2,0.7h16.2c0.8,0,1.5-0.3,2-0.7c0.5-0.5,0.8-1.1,0.8-1.8v-6c0-0.7-0.3-1.3-0.8-1.8
			C73.4,23.4,72.6,23.2,71.9,23.2z"/>
		<line class="st0" x1="54.8" y1="49.5" x2="72.8" y2="49.5"/>
		<line class="st6" x1="58.3" y1="82.4" x2="58.3" y2="66.8"/>
		<path class="st3" d="M98.7,23.2H82.5c-0.8,0-1.5,0.3-2,0.7c-0.5,0.5-0.8,1.1-0.8,1.8v6c0,0.7,0.3,1.3,0.8,1.8
			c0.5,0.5,1.3,0.7,2,0.7h16.2c0.8,0,1.5-0.3,2-0.7c0.5-0.5,0.8-1.1,0.8-1.8v-6c0-0.7-0.3-1.3-0.8-1.8
			C100.2,23.4,99.5,23.2,98.7,23.2z"/>
		<line class="st6" x1="58.3" y1="92.3" x2="58.3" y2="86.1"/>
		<line class="st6" x1="85.4" y1="82.4" x2="85.4" y2="73.3"/>
		<line class="st6" x1="85.4" y1="92.3" x2="85.4" y2="86.1"/>
		<path class="st0" d="M27.3,95.4c0,2.2,0.9,4.4,2.5,6c1.6,1.6,3.7,2.5,6,2.5H37c2.2,0,4.4-0.9,6-2.5c1.6-1.6,2.5-3.7,2.5-6V38.2
			H27.3V95.4z"/>
		<path class="st3" d="M44.5,23.2H28.3c-0.8,0-1.5,0.3-2,0.7c-0.5,0.5-0.8,1.1-0.8,1.8v6c0,0.7,0.3,1.3,0.8,1.8
			c0.5,0.5,1.3,0.7,2,0.7h16.2c0.8,0,1.5-0.3,2-0.7c0.5-0.5,0.8-1.1,0.8-1.8v-6c0-0.7-0.3-1.3-0.8-1.8C46,23.4,45.3,23.2,44.5,23.2z
			"/>
		<line class="st0" x1="27.4" y1="58.5" x2="45.4" y2="58.5"/>
		<line class="st6" x1="30.9" y1="82.4" x2="30.9" y2="66.8"/>
		<line class="st6" x1="30.9" y1="92.3" x2="30.9" y2="86.1"/>
	</g>
</g>
</svg>
